<svg width="960" height="720" viewBox="0 0 960 720" fill="none" xmlns="http://www.w3.org/2000/svg">
  <defs>
    <linearGradient id="sunGlow" x1="670" y1="44" x2="760" y2="220" gradientUnits="userSpaceOnUse">
      <stop stop-color="#F7E5B2"/>
      <stop offset="1" stop-color="#F0C46A"/>
    </linearGradient>
    <linearGradient id="mountainBack" x1="84" y1="252" x2="392" y2="472" gradientUnits="userSpaceOnUse">
      <stop stop-color="#6CA3A0"/>
      <stop offset="1" stop-color="#2E616A"/>
    </linearGradient>
    <linearGradient id="mountainMid" x1="346" y1="260" x2="684" y2="502" gradientUnits="userSpaceOnUse">
      <stop stop-color="#87B1AA"/>
      <stop offset="1" stop-color="#295664"/>
    </linearGradient>
    <linearGradient id="mountainFront" x1="384" y1="314" x2="874" y2="590" gradientUnits="userSpaceOnUse">
      <stop stop-color="#E58B57"/>
      <stop offset="1" stop-color="#B8574D"/>
    </linearGradient>
    <linearGradient id="water" x1="176" y1="426" x2="765" y2="652" gradientUnits="userSpaceOnUse">
      <stop stop-color="#A6CED3" stop-opacity="0.92"/>
      <stop offset="1" stop-color="#D6E8EA" stop-opacity="0.56"/>
    </linearGradient>
    <linearGradient id="road" x1="196" y1="598" x2="532" y2="462" gradientUnits="userSpaceOnUse">
      <stop stop-color="#E7D4A3"/>
      <stop offset="1" stop-color="#B77A45"/>
    </linearGradient>
    <radialGradient id="shadow" cx="0" cy="0" r="1" gradientUnits="userSpaceOnUse" gradientTransform="translate(458 594) rotate(90) scale(78 310)">
      <stop stop-color="#0E3F48" stop-opacity="0.18"/>
      <stop offset="1" stop-color="#0E3F48" stop-opacity="0"/>
    </radialGradient>
  </defs>

  <g opacity="0.94">
    <circle cx="706" cy="132" r="112" fill="url(#sunGlow)"/>
    <circle cx="706" cy="132" r="54" fill="#F2D697" fill-opacity="0.92"/>
    <ellipse cx="322" cy="126" rx="120" ry="34" fill="#D8E4E2" fill-opacity="0.24"/>
    <ellipse cx="318" cy="126" rx="54" ry="26" fill="#D8E4E2" fill-opacity="0.24"/>
    <ellipse cx="602" cy="102" rx="128" ry="28" fill="#D8E4E2" fill-opacity="0.26"/>
  </g>

  <path d="M52 342C136 274 250 244 358 252C422 257 485 291 549 291C598 291 641 272 690 269C779 264 852 308 917 360V610H52V342Z" fill="url(#mountainBack)" fill-opacity="0.94"/>
  <path d="M30 420C128 364 225 346 306 361C380 374 421 419 500 425C600 433 693 375 780 375C844 375 893 397 930 418V634H30V420Z" fill="url(#mountainMid)" fill-opacity="0.94"/>
  <path d="M270 618C349 516 425 458 514 430C614 398 739 408 866 466C919 490 949 520 960 540V720H270V618Z" fill="url(#mountainFront)"/>
  <path d="M86 566C180 534 276 542 370 578C471 617 571 626 666 602C754 580 827 539 906 532V720H86V566Z" fill="#F3E8D1" fill-opacity="0.26"/>
  <path d="M322 658C418 622 483 608 558 610C660 614 750 656 824 720H322V658Z" fill="url(#water)"/>
  <ellipse cx="466" cy="594" rx="310" ry="78" fill="url(#shadow)"/>

  <path d="M210 624C264 588 314 578 361 584C407 590 456 620 513 622C566 624 614 603 661 564" stroke="url(#road)" stroke-width="24" stroke-linecap="round"/>
  <path d="M210 624C280 592 332 590 392 620C452 650 516 664 584 656" stroke="#0B3942" stroke-opacity="0.28" stroke-width="3" stroke-linecap="round" stroke-dasharray="3 16"/>

  <g opacity="0.88">
    <circle cx="434" cy="486" r="66" fill="#F3E8D1" fill-opacity="0.18"/>
    <path d="M434 430C397.997 430 369 458.788 369 494.443C369 543.369 434 594 434 594C434 594 499 543.369 499 494.443C499 458.788 470.003 430 434 430Z" fill="#E06E5B"/>
    <circle cx="434" cy="494" r="22" fill="#CDE0DE"/>
  </g>

  <g opacity="0.9">
    <path d="M758 540H852V696H758V540Z" fill="#EFD7A0"/>
    <path d="M734 694H876V720H734V694Z" fill="#F2DFB5"/>
    <path d="M726 628H884C891.732 628 898 634.268 898 642C898 649.732 891.732 656 884 656H726C718.268 656 712 649.732 712 642C712 634.268 718.268 628 726 628Z" fill="#F2DFB5"/>
    <path d="M734 574H876C883.732 574 890 580.268 890 588C890 595.732 883.732 602 876 602H734C726.268 602 720 595.732 720 588C720 580.268 726.268 574 734 574Z" fill="#F2DFB5"/>
    <path d="M744 430L840 312L936 430H744Z" fill="#D55E45"/>
    <path d="M774 430L840 350L906 430H774Z" fill="#B74E3A"/>
  </g>

  <g opacity="0.74">
    <rect x="116" y="462" width="22" height="128" rx="11" fill="#123742"/>
    <rect x="170" y="420" width="24" height="170" rx="12" fill="#123742"/>
    <rect x="230" y="452" width="22" height="138" rx="11" fill="#123742"/>
    <rect x="292" y="390" width="24" height="200" rx="12" fill="#123742"/>
    <rect x="358" y="482" width="22" height="108" rx="11" fill="#123742"/>
    <rect x="418" y="436" width="22" height="154" rx="11" fill="#123742"/>
  </g>

  <g opacity="0.86">
    <path d="M514 160C494 168 476 178 458 196" stroke="#F0D8A4" stroke-width="8" stroke-linecap="round"/>
    <path d="M500 146L520 160L504 178" stroke="#F0D8A4" stroke-width="8" stroke-linecap="round" stroke-linejoin="round"/>
    <path d="M476 230C512 198 556 176 612 170" stroke="#F0D8A4" stroke-width="5" stroke-linecap="round" stroke-dasharray="2 16"/>
    <path d="M612 170L592 158L598 182" fill="#F0D8A4"/>
  </g>

  <g opacity="0.3">
    <circle cx="308" cy="638" r="7" fill="#DCE7E6"/>
    <circle cx="338" cy="636" r="7" fill="#DCE7E6"/>
    <circle cx="368" cy="638" r="7" fill="#DCE7E6"/>
    <circle cx="398" cy="646" r="7" fill="#DCE7E6"/>
    <circle cx="428" cy="654" r="7" fill="#DCE7E6"/>
    <circle cx="458" cy="668" r="7" fill="#DCE7E6"/>
    <circle cx="488" cy="680" r="7" fill="#DCE7E6"/>
    <circle cx="518" cy="698" r="7" fill="#DCE7E6"/>
  </g>
</svg>
